<mxfile host="app.diagrams.net" modified="2023-11-15T03:04:45.986Z" agent="Mozilla/5.0 (Macintosh; Intel Mac OS X 10_15_7) AppleWebKit/537.36 (KHTML, like Gecko) Chrome/117.0.0.0 Safari/537.36" etag="1oKfaTMVFARnp_PYAuMF" version="22.1.1" type="github">
  <diagram name="第 1 页" id="LGj4DEIW_rneHK2cbyDq">
    <mxGraphModel dx="1853" dy="655" grid="1" gridSize="10" guides="1" tooltips="1" connect="1" arrows="1" fold="1" page="1" pageScale="1" pageWidth="827" pageHeight="1169" math="0" shadow="0">
      <root>
        <mxCell id="0" />
        <mxCell id="1" parent="0" />
        <mxCell id="tK5RccIodpzXNDPs2a60-202" style="edgeStyle=orthogonalEdgeStyle;rounded=0;orthogonalLoop=1;jettySize=auto;html=1;exitX=0.5;exitY=0;exitDx=0;exitDy=0;entryX=0.5;entryY=1;entryDx=0;entryDy=0;" edge="1" parent="1" source="tK5RccIodpzXNDPs2a60-201" target="tK5RccIodpzXNDPs2a60-1">
          <mxGeometry relative="1" as="geometry" />
        </mxCell>
        <mxCell id="tK5RccIodpzXNDPs2a60-201" value="" style="rounded=0;whiteSpace=wrap;html=1;dashed=1;fillColor=none;" vertex="1" parent="1">
          <mxGeometry x="-280" y="580" width="780" height="290" as="geometry" />
        </mxCell>
        <mxCell id="tK5RccIodpzXNDPs2a60-1" value="" style="rounded=0;whiteSpace=wrap;html=1;fillColor=#f5f5f5;dashed=1;fontColor=#333333;strokeColor=#666666;" vertex="1" parent="1">
          <mxGeometry x="-100" y="350" width="420" height="182.5" as="geometry" />
        </mxCell>
        <mxCell id="tK5RccIodpzXNDPs2a60-2" value="" style="rounded=0;whiteSpace=wrap;html=1;fillColor=#f5f5f5;dashed=1;fontColor=#333333;strokeColor=#666666;" vertex="1" parent="1">
          <mxGeometry x="600" y="350" width="420" height="182.5" as="geometry" />
        </mxCell>
        <mxCell id="tK5RccIodpzXNDPs2a60-3" value="" style="rounded=0;whiteSpace=wrap;html=1;fillColor=#f5f5f5;dashed=1;fontColor=#333333;strokeColor=#666666;" vertex="1" parent="1">
          <mxGeometry x="600" y="580" width="420" height="290" as="geometry" />
        </mxCell>
        <mxCell id="tK5RccIodpzXNDPs2a60-5" style="edgeStyle=orthogonalEdgeStyle;rounded=0;orthogonalLoop=1;jettySize=auto;html=1;exitX=1;exitY=0.5;exitDx=0;exitDy=0;entryX=0;entryY=0.5;entryDx=0;entryDy=0;" edge="1" parent="1" target="tK5RccIodpzXNDPs2a60-2">
          <mxGeometry relative="1" as="geometry">
            <mxPoint x="500" y="725" as="sourcePoint" />
          </mxGeometry>
        </mxCell>
        <mxCell id="tK5RccIodpzXNDPs2a60-6" style="edgeStyle=orthogonalEdgeStyle;rounded=0;orthogonalLoop=1;jettySize=auto;html=1;exitX=1;exitY=0.5;exitDx=0;exitDy=0;entryX=0;entryY=0.5;entryDx=0;entryDy=0;" edge="1" parent="1" target="tK5RccIodpzXNDPs2a60-88">
          <mxGeometry relative="1" as="geometry">
            <Array as="points">
              <mxPoint x="550" y="725" />
              <mxPoint x="550" y="603" />
            </Array>
            <mxPoint x="500" y="725" as="sourcePoint" />
          </mxGeometry>
        </mxCell>
        <mxCell id="tK5RccIodpzXNDPs2a60-30" value="&lt;font style=&quot;font-size: 18px;&quot;&gt;Actor model&lt;/font&gt;" style="text;html=1;align=center;verticalAlign=middle;resizable=0;points=[];autosize=1;strokeColor=none;fillColor=none;" vertex="1" parent="1">
          <mxGeometry x="50" y="870" width="120" height="40" as="geometry" />
        </mxCell>
        <mxCell id="tK5RccIodpzXNDPs2a60-31" value="GPU 0" style="rounded=0;whiteSpace=wrap;html=1;movable=1;resizable=1;rotatable=1;deletable=1;editable=1;locked=0;connectable=1;" vertex="1" parent="1">
          <mxGeometry x="-30" y="370" width="110" height="25" as="geometry" />
        </mxCell>
        <mxCell id="tK5RccIodpzXNDPs2a60-32" value="GPU 1" style="rounded=0;whiteSpace=wrap;html=1;movable=1;resizable=1;rotatable=1;deletable=1;editable=1;locked=0;connectable=1;" vertex="1" parent="1">
          <mxGeometry x="-30" y="395" width="110" height="25" as="geometry" />
        </mxCell>
        <mxCell id="tK5RccIodpzXNDPs2a60-33" value="Replica-0" style="text;html=1;align=center;verticalAlign=middle;resizable=0;points=[];autosize=1;strokeColor=none;fillColor=none;fontSize=16;" vertex="1" parent="1">
          <mxGeometry x="-45" y="420" width="90" height="30" as="geometry" />
        </mxCell>
        <mxCell id="tK5RccIodpzXNDPs2a60-34" value="&lt;font style=&quot;font-size: 18px;&quot;&gt;Reference model&lt;/font&gt;" style="text;html=1;align=center;verticalAlign=middle;resizable=0;points=[];autosize=1;strokeColor=none;fillColor=none;" vertex="1" parent="1">
          <mxGeometry x="30" y="310" width="160" height="40" as="geometry" />
        </mxCell>
        <mxCell id="tK5RccIodpzXNDPs2a60-35" value="" style="group" vertex="1" connectable="0" parent="1">
          <mxGeometry x="620" y="640" width="160" height="200" as="geometry" />
        </mxCell>
        <mxCell id="tK5RccIodpzXNDPs2a60-36" value="GPU 0" style="rounded=0;whiteSpace=wrap;html=1;movable=1;resizable=1;rotatable=1;deletable=1;editable=1;locked=0;connectable=1;" vertex="1" parent="tK5RccIodpzXNDPs2a60-35">
          <mxGeometry width="160" height="25" as="geometry" />
        </mxCell>
        <mxCell id="tK5RccIodpzXNDPs2a60-37" value="GPU 1" style="rounded=0;whiteSpace=wrap;html=1;movable=1;resizable=1;rotatable=1;deletable=1;editable=1;locked=0;connectable=1;" vertex="1" parent="tK5RccIodpzXNDPs2a60-35">
          <mxGeometry y="25" width="160" height="25" as="geometry" />
        </mxCell>
        <mxCell id="tK5RccIodpzXNDPs2a60-38" value="GPU 2" style="rounded=0;whiteSpace=wrap;html=1;movable=1;resizable=1;rotatable=1;deletable=1;editable=1;locked=0;connectable=1;" vertex="1" parent="tK5RccIodpzXNDPs2a60-35">
          <mxGeometry y="50" width="160" height="25" as="geometry" />
        </mxCell>
        <mxCell id="tK5RccIodpzXNDPs2a60-39" value="GPU 3" style="rounded=0;whiteSpace=wrap;html=1;movable=1;resizable=1;rotatable=1;deletable=1;editable=1;locked=0;connectable=1;" vertex="1" parent="tK5RccIodpzXNDPs2a60-35">
          <mxGeometry y="75" width="160" height="25" as="geometry" />
        </mxCell>
        <mxCell id="tK5RccIodpzXNDPs2a60-40" value="GPU 4" style="rounded=0;whiteSpace=wrap;html=1;movable=1;resizable=1;rotatable=1;deletable=1;editable=1;locked=0;connectable=1;" vertex="1" parent="tK5RccIodpzXNDPs2a60-35">
          <mxGeometry y="100" width="160" height="25" as="geometry" />
        </mxCell>
        <mxCell id="tK5RccIodpzXNDPs2a60-41" value="GPU 5" style="rounded=0;whiteSpace=wrap;html=1;movable=1;resizable=1;rotatable=1;deletable=1;editable=1;locked=0;connectable=1;" vertex="1" parent="tK5RccIodpzXNDPs2a60-35">
          <mxGeometry y="125" width="160" height="25" as="geometry" />
        </mxCell>
        <mxCell id="tK5RccIodpzXNDPs2a60-42" value="GPU 6" style="rounded=0;whiteSpace=wrap;html=1;movable=1;resizable=1;rotatable=1;deletable=1;editable=1;locked=0;connectable=1;" vertex="1" parent="tK5RccIodpzXNDPs2a60-35">
          <mxGeometry y="150" width="160" height="25" as="geometry" />
        </mxCell>
        <mxCell id="tK5RccIodpzXNDPs2a60-43" value="GPU 7" style="rounded=0;whiteSpace=wrap;html=1;movable=1;resizable=1;rotatable=1;deletable=1;editable=1;locked=0;connectable=1;" vertex="1" parent="tK5RccIodpzXNDPs2a60-35">
          <mxGeometry y="175" width="160" height="25" as="geometry" />
        </mxCell>
        <mxCell id="tK5RccIodpzXNDPs2a60-44" value="" style="group" vertex="1" connectable="0" parent="1">
          <mxGeometry x="840" y="640" width="160" height="200" as="geometry" />
        </mxCell>
        <mxCell id="tK5RccIodpzXNDPs2a60-45" value="GPU 0" style="rounded=0;whiteSpace=wrap;html=1;movable=1;resizable=1;rotatable=1;deletable=1;editable=1;locked=0;connectable=1;" vertex="1" parent="tK5RccIodpzXNDPs2a60-44">
          <mxGeometry width="160" height="25" as="geometry" />
        </mxCell>
        <mxCell id="tK5RccIodpzXNDPs2a60-46" value="GPU 1" style="rounded=0;whiteSpace=wrap;html=1;movable=1;resizable=1;rotatable=1;deletable=1;editable=1;locked=0;connectable=1;" vertex="1" parent="tK5RccIodpzXNDPs2a60-44">
          <mxGeometry y="25" width="160" height="25" as="geometry" />
        </mxCell>
        <mxCell id="tK5RccIodpzXNDPs2a60-47" value="GPU 2" style="rounded=0;whiteSpace=wrap;html=1;movable=1;resizable=1;rotatable=1;deletable=1;editable=1;locked=0;connectable=1;" vertex="1" parent="tK5RccIodpzXNDPs2a60-44">
          <mxGeometry y="50" width="160" height="25" as="geometry" />
        </mxCell>
        <mxCell id="tK5RccIodpzXNDPs2a60-48" value="GPU 3" style="rounded=0;whiteSpace=wrap;html=1;movable=1;resizable=1;rotatable=1;deletable=1;editable=1;locked=0;connectable=1;" vertex="1" parent="tK5RccIodpzXNDPs2a60-44">
          <mxGeometry y="75" width="160" height="25" as="geometry" />
        </mxCell>
        <mxCell id="tK5RccIodpzXNDPs2a60-49" value="GPU 4" style="rounded=0;whiteSpace=wrap;html=1;movable=1;resizable=1;rotatable=1;deletable=1;editable=1;locked=0;connectable=1;" vertex="1" parent="tK5RccIodpzXNDPs2a60-44">
          <mxGeometry y="100" width="160" height="25" as="geometry" />
        </mxCell>
        <mxCell id="tK5RccIodpzXNDPs2a60-50" value="GPU 5" style="rounded=0;whiteSpace=wrap;html=1;movable=1;resizable=1;rotatable=1;deletable=1;editable=1;locked=0;connectable=1;" vertex="1" parent="tK5RccIodpzXNDPs2a60-44">
          <mxGeometry y="125" width="160" height="25" as="geometry" />
        </mxCell>
        <mxCell id="tK5RccIodpzXNDPs2a60-51" value="GPU 6" style="rounded=0;whiteSpace=wrap;html=1;movable=1;resizable=1;rotatable=1;deletable=1;editable=1;locked=0;connectable=1;" vertex="1" parent="tK5RccIodpzXNDPs2a60-44">
          <mxGeometry y="150" width="160" height="25" as="geometry" />
        </mxCell>
        <mxCell id="tK5RccIodpzXNDPs2a60-52" value="GPU 7" style="rounded=0;whiteSpace=wrap;html=1;movable=1;resizable=1;rotatable=1;deletable=1;editable=1;locked=0;connectable=1;" vertex="1" parent="tK5RccIodpzXNDPs2a60-44">
          <mxGeometry y="175" width="160" height="25" as="geometry" />
        </mxCell>
        <mxCell id="tK5RccIodpzXNDPs2a60-53" value="Node-0" style="text;html=1;align=center;verticalAlign=middle;resizable=0;points=[];autosize=1;strokeColor=none;fillColor=none;fontSize=16;" vertex="1" parent="1">
          <mxGeometry x="660" y="840" width="80" height="30" as="geometry" />
        </mxCell>
        <mxCell id="tK5RccIodpzXNDPs2a60-54" value="Node-1" style="text;html=1;align=center;verticalAlign=middle;resizable=0;points=[];autosize=1;strokeColor=none;fillColor=none;fontSize=16;" vertex="1" parent="1">
          <mxGeometry x="880" y="840" width="80" height="30" as="geometry" />
        </mxCell>
        <mxCell id="tK5RccIodpzXNDPs2a60-55" value="" style="shape=flexArrow;endArrow=classic;startArrow=classic;html=1;rounded=0;exitX=0;exitY=0;exitDx=0;exitDy=0;width=10;endSize=4.83;startSize=4.83;" edge="1" parent="1" source="tK5RccIodpzXNDPs2a60-49">
          <mxGeometry width="100" height="100" relative="1" as="geometry">
            <mxPoint x="870" y="780" as="sourcePoint" />
            <mxPoint x="780" y="740" as="targetPoint" />
          </mxGeometry>
        </mxCell>
        <mxCell id="tK5RccIodpzXNDPs2a60-56" value="ZeRO" style="text;html=1;align=center;verticalAlign=middle;resizable=0;points=[];autosize=1;strokeColor=none;fillColor=none;" vertex="1" parent="1">
          <mxGeometry x="780" y="700" width="60" height="30" as="geometry" />
        </mxCell>
        <mxCell id="tK5RccIodpzXNDPs2a60-57" value="&lt;font style=&quot;font-size: 18px;&quot;&gt;Critic model&lt;/font&gt;" style="text;html=1;align=center;verticalAlign=middle;resizable=0;points=[];autosize=1;strokeColor=none;fillColor=none;" vertex="1" parent="1">
          <mxGeometry x="750" y="870" width="120" height="40" as="geometry" />
        </mxCell>
        <mxCell id="tK5RccIodpzXNDPs2a60-58" value="Manager" style="rounded=0;whiteSpace=wrap;html=1;fillColor=#ffe6cc;strokeColor=#d79b00;" vertex="1" parent="1">
          <mxGeometry x="-80" y="370" width="50" height="50" as="geometry" />
        </mxCell>
        <mxCell id="tK5RccIodpzXNDPs2a60-59" value="GPU 0" style="rounded=0;whiteSpace=wrap;html=1;movable=1;resizable=1;rotatable=1;deletable=1;editable=1;locked=0;connectable=1;" vertex="1" parent="1">
          <mxGeometry x="190" y="370" width="110" height="25" as="geometry" />
        </mxCell>
        <mxCell id="tK5RccIodpzXNDPs2a60-60" value="GPU 1" style="rounded=0;whiteSpace=wrap;html=1;movable=1;resizable=1;rotatable=1;deletable=1;editable=1;locked=0;connectable=1;" vertex="1" parent="1">
          <mxGeometry x="190" y="395" width="110" height="25" as="geometry" />
        </mxCell>
        <mxCell id="tK5RccIodpzXNDPs2a60-61" value="Replica-1" style="text;html=1;align=center;verticalAlign=middle;resizable=0;points=[];autosize=1;strokeColor=none;fillColor=none;fontSize=16;" vertex="1" parent="1">
          <mxGeometry x="175" y="420" width="90" height="30" as="geometry" />
        </mxCell>
        <mxCell id="tK5RccIodpzXNDPs2a60-62" value="Manager" style="rounded=0;whiteSpace=wrap;html=1;fillColor=#ffe6cc;strokeColor=#d79b00;" vertex="1" parent="1">
          <mxGeometry x="140" y="370" width="50" height="50" as="geometry" />
        </mxCell>
        <mxCell id="tK5RccIodpzXNDPs2a60-63" value="GPU 0" style="rounded=0;whiteSpace=wrap;html=1;movable=1;resizable=1;rotatable=1;deletable=1;editable=1;locked=0;connectable=1;" vertex="1" parent="1">
          <mxGeometry x="-30" y="450" width="110" height="25" as="geometry" />
        </mxCell>
        <mxCell id="tK5RccIodpzXNDPs2a60-64" value="GPU 1" style="rounded=0;whiteSpace=wrap;html=1;movable=1;resizable=1;rotatable=1;deletable=1;editable=1;locked=0;connectable=1;" vertex="1" parent="1">
          <mxGeometry x="-30" y="475" width="110" height="25" as="geometry" />
        </mxCell>
        <mxCell id="tK5RccIodpzXNDPs2a60-65" value="Replica-2" style="text;html=1;align=center;verticalAlign=middle;resizable=0;points=[];autosize=1;strokeColor=none;fillColor=none;fontSize=16;" vertex="1" parent="1">
          <mxGeometry x="-45" y="500" width="90" height="30" as="geometry" />
        </mxCell>
        <mxCell id="tK5RccIodpzXNDPs2a60-66" value="Manager" style="rounded=0;whiteSpace=wrap;html=1;fillColor=#ffe6cc;strokeColor=#d79b00;" vertex="1" parent="1">
          <mxGeometry x="-80" y="450" width="50" height="50" as="geometry" />
        </mxCell>
        <mxCell id="tK5RccIodpzXNDPs2a60-67" value="GPU 0" style="rounded=0;whiteSpace=wrap;html=1;movable=1;resizable=1;rotatable=1;deletable=1;editable=1;locked=0;connectable=1;" vertex="1" parent="1">
          <mxGeometry x="190" y="450" width="110" height="25" as="geometry" />
        </mxCell>
        <mxCell id="tK5RccIodpzXNDPs2a60-68" value="GPU 1" style="rounded=0;whiteSpace=wrap;html=1;movable=1;resizable=1;rotatable=1;deletable=1;editable=1;locked=0;connectable=1;" vertex="1" parent="1">
          <mxGeometry x="190" y="475" width="110" height="25" as="geometry" />
        </mxCell>
        <mxCell id="tK5RccIodpzXNDPs2a60-69" value="Replica-3" style="text;html=1;align=center;verticalAlign=middle;resizable=0;points=[];autosize=1;strokeColor=none;fillColor=none;fontSize=16;" vertex="1" parent="1">
          <mxGeometry x="175" y="500" width="90" height="30" as="geometry" />
        </mxCell>
        <mxCell id="tK5RccIodpzXNDPs2a60-70" value="Manager" style="rounded=0;whiteSpace=wrap;html=1;fillColor=#ffe6cc;strokeColor=#d79b00;" vertex="1" parent="1">
          <mxGeometry x="140" y="450" width="50" height="50" as="geometry" />
        </mxCell>
        <mxCell id="tK5RccIodpzXNDPs2a60-71" value="GPU 0" style="rounded=0;whiteSpace=wrap;html=1;movable=1;resizable=1;rotatable=1;deletable=1;editable=1;locked=0;connectable=1;" vertex="1" parent="1">
          <mxGeometry x="670" y="370" width="110" height="25" as="geometry" />
        </mxCell>
        <mxCell id="tK5RccIodpzXNDPs2a60-72" value="GPU 1" style="rounded=0;whiteSpace=wrap;html=1;movable=1;resizable=1;rotatable=1;deletable=1;editable=1;locked=0;connectable=1;" vertex="1" parent="1">
          <mxGeometry x="670" y="395" width="110" height="25" as="geometry" />
        </mxCell>
        <mxCell id="tK5RccIodpzXNDPs2a60-73" value="Replica-0" style="text;html=1;align=center;verticalAlign=middle;resizable=0;points=[];autosize=1;strokeColor=none;fillColor=none;fontSize=16;" vertex="1" parent="1">
          <mxGeometry x="655" y="420" width="90" height="30" as="geometry" />
        </mxCell>
        <mxCell id="tK5RccIodpzXNDPs2a60-74" value="&lt;font style=&quot;font-size: 18px;&quot;&gt;Reward model&lt;/font&gt;" style="text;html=1;align=center;verticalAlign=middle;resizable=0;points=[];autosize=1;strokeColor=none;fillColor=none;" vertex="1" parent="1">
          <mxGeometry x="740" y="310" width="140" height="40" as="geometry" />
        </mxCell>
        <mxCell id="tK5RccIodpzXNDPs2a60-75" value="Manager" style="rounded=0;whiteSpace=wrap;html=1;fillColor=#ffe6cc;strokeColor=#d79b00;" vertex="1" parent="1">
          <mxGeometry x="620" y="370" width="50" height="50" as="geometry" />
        </mxCell>
        <mxCell id="tK5RccIodpzXNDPs2a60-76" value="GPU 0" style="rounded=0;whiteSpace=wrap;html=1;movable=1;resizable=1;rotatable=1;deletable=1;editable=1;locked=0;connectable=1;" vertex="1" parent="1">
          <mxGeometry x="890" y="370" width="110" height="25" as="geometry" />
        </mxCell>
        <mxCell id="tK5RccIodpzXNDPs2a60-77" value="GPU 1" style="rounded=0;whiteSpace=wrap;html=1;movable=1;resizable=1;rotatable=1;deletable=1;editable=1;locked=0;connectable=1;" vertex="1" parent="1">
          <mxGeometry x="890" y="395" width="110" height="25" as="geometry" />
        </mxCell>
        <mxCell id="tK5RccIodpzXNDPs2a60-78" value="Replica-1" style="text;html=1;align=center;verticalAlign=middle;resizable=0;points=[];autosize=1;strokeColor=none;fillColor=none;fontSize=16;" vertex="1" parent="1">
          <mxGeometry x="875" y="420" width="90" height="30" as="geometry" />
        </mxCell>
        <mxCell id="tK5RccIodpzXNDPs2a60-79" value="Manager" style="rounded=0;whiteSpace=wrap;html=1;fillColor=#ffe6cc;strokeColor=#d79b00;" vertex="1" parent="1">
          <mxGeometry x="840" y="370" width="50" height="50" as="geometry" />
        </mxCell>
        <mxCell id="tK5RccIodpzXNDPs2a60-80" value="GPU 0" style="rounded=0;whiteSpace=wrap;html=1;movable=1;resizable=1;rotatable=1;deletable=1;editable=1;locked=0;connectable=1;" vertex="1" parent="1">
          <mxGeometry x="670" y="450" width="110" height="25" as="geometry" />
        </mxCell>
        <mxCell id="tK5RccIodpzXNDPs2a60-81" value="GPU 1" style="rounded=0;whiteSpace=wrap;html=1;movable=1;resizable=1;rotatable=1;deletable=1;editable=1;locked=0;connectable=1;" vertex="1" parent="1">
          <mxGeometry x="670" y="475" width="110" height="25" as="geometry" />
        </mxCell>
        <mxCell id="tK5RccIodpzXNDPs2a60-82" value="Replica-2" style="text;html=1;align=center;verticalAlign=middle;resizable=0;points=[];autosize=1;strokeColor=none;fillColor=none;fontSize=16;" vertex="1" parent="1">
          <mxGeometry x="655" y="500" width="90" height="30" as="geometry" />
        </mxCell>
        <mxCell id="tK5RccIodpzXNDPs2a60-83" value="Manager" style="rounded=0;whiteSpace=wrap;html=1;fillColor=#ffe6cc;strokeColor=#d79b00;" vertex="1" parent="1">
          <mxGeometry x="620" y="450" width="50" height="50" as="geometry" />
        </mxCell>
        <mxCell id="tK5RccIodpzXNDPs2a60-84" value="GPU 0" style="rounded=0;whiteSpace=wrap;html=1;movable=1;resizable=1;rotatable=1;deletable=1;editable=1;locked=0;connectable=1;" vertex="1" parent="1">
          <mxGeometry x="890" y="450" width="110" height="25" as="geometry" />
        </mxCell>
        <mxCell id="tK5RccIodpzXNDPs2a60-85" value="GPU 1" style="rounded=0;whiteSpace=wrap;html=1;movable=1;resizable=1;rotatable=1;deletable=1;editable=1;locked=0;connectable=1;" vertex="1" parent="1">
          <mxGeometry x="890" y="475" width="110" height="25" as="geometry" />
        </mxCell>
        <mxCell id="tK5RccIodpzXNDPs2a60-86" value="Replica-3" style="text;html=1;align=center;verticalAlign=middle;resizable=0;points=[];autosize=1;strokeColor=none;fillColor=none;fontSize=16;" vertex="1" parent="1">
          <mxGeometry x="875" y="500" width="90" height="30" as="geometry" />
        </mxCell>
        <mxCell id="tK5RccIodpzXNDPs2a60-87" value="Manager" style="rounded=0;whiteSpace=wrap;html=1;fillColor=#ffe6cc;strokeColor=#d79b00;" vertex="1" parent="1">
          <mxGeometry x="840" y="450" width="50" height="50" as="geometry" />
        </mxCell>
        <mxCell id="tK5RccIodpzXNDPs2a60-88" value="Manager" style="rounded=0;whiteSpace=wrap;html=1;fillColor=#ffe6cc;strokeColor=#d79b00;" vertex="1" parent="1">
          <mxGeometry x="620" y="590" width="380" height="25" as="geometry" />
        </mxCell>
        <mxCell id="tK5RccIodpzXNDPs2a60-89" value="" style="endArrow=classic;html=1;rounded=0;" edge="1" parent="1">
          <mxGeometry width="50" height="50" relative="1" as="geometry">
            <mxPoint x="919.5" y="615" as="sourcePoint" />
            <mxPoint x="919.5" y="640" as="targetPoint" />
          </mxGeometry>
        </mxCell>
        <mxCell id="tK5RccIodpzXNDPs2a60-90" value="" style="endArrow=classic;html=1;rounded=0;" edge="1" parent="1">
          <mxGeometry width="50" height="50" relative="1" as="geometry">
            <mxPoint x="699.5" y="614" as="sourcePoint" />
            <mxPoint x="699.5" y="639" as="targetPoint" />
          </mxGeometry>
        </mxCell>
        <mxCell id="tK5RccIodpzXNDPs2a60-195" value="" style="rounded=0;whiteSpace=wrap;html=1;fillColor=#dae8fc;strokeColor=#6c8ebf;" vertex="1" parent="1">
          <mxGeometry x="120" y="600" width="360" height="250" as="geometry" />
        </mxCell>
        <mxCell id="tK5RccIodpzXNDPs2a60-193" value="" style="rounded=0;whiteSpace=wrap;html=1;fillColor=#d5e8d4;strokeColor=#82b366;" vertex="1" parent="1">
          <mxGeometry x="-257" y="600" width="340" height="250" as="geometry" />
        </mxCell>
        <mxCell id="tK5RccIodpzXNDPs2a60-132" value="Node-0" style="text;html=1;align=center;verticalAlign=middle;resizable=0;points=[];autosize=1;strokeColor=none;fillColor=none;fontSize=12;" vertex="1" parent="1">
          <mxGeometry x="-209.63" y="780" width="60" height="30" as="geometry" />
        </mxCell>
        <mxCell id="tK5RccIodpzXNDPs2a60-133" value="Node-1" style="text;html=1;align=center;verticalAlign=middle;resizable=0;points=[];autosize=1;strokeColor=none;fillColor=none;fontSize=12;" vertex="1" parent="1">
          <mxGeometry x="-24.370000000000005" y="780" width="60" height="30" as="geometry" />
        </mxCell>
        <mxCell id="tK5RccIodpzXNDPs2a60-114" value="" style="group" vertex="1" connectable="0" parent="1">
          <mxGeometry x="-247" y="620" width="134.73684210526315" height="160" as="geometry" />
        </mxCell>
        <mxCell id="tK5RccIodpzXNDPs2a60-115" value="GPU 0" style="rounded=0;whiteSpace=wrap;html=1;movable=1;resizable=1;rotatable=1;deletable=1;editable=1;locked=0;connectable=1;" vertex="1" parent="tK5RccIodpzXNDPs2a60-114">
          <mxGeometry width="134.73684210526315" height="20" as="geometry" />
        </mxCell>
        <mxCell id="tK5RccIodpzXNDPs2a60-116" value="GPU 1" style="rounded=0;whiteSpace=wrap;html=1;movable=1;resizable=1;rotatable=1;deletable=1;editable=1;locked=0;connectable=1;" vertex="1" parent="tK5RccIodpzXNDPs2a60-114">
          <mxGeometry y="20" width="134.73684210526315" height="20" as="geometry" />
        </mxCell>
        <mxCell id="tK5RccIodpzXNDPs2a60-117" value="GPU 2" style="rounded=0;whiteSpace=wrap;html=1;movable=1;resizable=1;rotatable=1;deletable=1;editable=1;locked=0;connectable=1;" vertex="1" parent="tK5RccIodpzXNDPs2a60-114">
          <mxGeometry y="40" width="134.73684210526315" height="20" as="geometry" />
        </mxCell>
        <mxCell id="tK5RccIodpzXNDPs2a60-118" value="GPU 3" style="rounded=0;whiteSpace=wrap;html=1;movable=1;resizable=1;rotatable=1;deletable=1;editable=1;locked=0;connectable=1;" vertex="1" parent="tK5RccIodpzXNDPs2a60-114">
          <mxGeometry y="60" width="134.73684210526315" height="20" as="geometry" />
        </mxCell>
        <mxCell id="tK5RccIodpzXNDPs2a60-119" value="GPU 4" style="rounded=0;whiteSpace=wrap;html=1;movable=1;resizable=1;rotatable=1;deletable=1;editable=1;locked=0;connectable=1;" vertex="1" parent="tK5RccIodpzXNDPs2a60-114">
          <mxGeometry y="80" width="134.73684210526315" height="20" as="geometry" />
        </mxCell>
        <mxCell id="tK5RccIodpzXNDPs2a60-120" value="GPU 5" style="rounded=0;whiteSpace=wrap;html=1;movable=1;resizable=1;rotatable=1;deletable=1;editable=1;locked=0;connectable=1;" vertex="1" parent="tK5RccIodpzXNDPs2a60-114">
          <mxGeometry y="100" width="134.73684210526315" height="20" as="geometry" />
        </mxCell>
        <mxCell id="tK5RccIodpzXNDPs2a60-121" value="GPU 6" style="rounded=0;whiteSpace=wrap;html=1;movable=1;resizable=1;rotatable=1;deletable=1;editable=1;locked=0;connectable=1;" vertex="1" parent="tK5RccIodpzXNDPs2a60-114">
          <mxGeometry y="120" width="134.73684210526315" height="20" as="geometry" />
        </mxCell>
        <mxCell id="tK5RccIodpzXNDPs2a60-122" value="GPU 7" style="rounded=0;whiteSpace=wrap;html=1;movable=1;resizable=1;rotatable=1;deletable=1;editable=1;locked=0;connectable=1;" vertex="1" parent="tK5RccIodpzXNDPs2a60-114">
          <mxGeometry y="140" width="134.73684210526315" height="20" as="geometry" />
        </mxCell>
        <mxCell id="tK5RccIodpzXNDPs2a60-123" value="" style="group" vertex="1" connectable="0" parent="1">
          <mxGeometry x="-61.73684210526318" y="620" width="134.73684210526315" height="160" as="geometry" />
        </mxCell>
        <mxCell id="tK5RccIodpzXNDPs2a60-124" value="GPU 0" style="rounded=0;whiteSpace=wrap;html=1;movable=1;resizable=1;rotatable=1;deletable=1;editable=1;locked=0;connectable=1;" vertex="1" parent="tK5RccIodpzXNDPs2a60-123">
          <mxGeometry width="134.73684210526315" height="20" as="geometry" />
        </mxCell>
        <mxCell id="tK5RccIodpzXNDPs2a60-125" value="GPU 1" style="rounded=0;whiteSpace=wrap;html=1;movable=1;resizable=1;rotatable=1;deletable=1;editable=1;locked=0;connectable=1;" vertex="1" parent="tK5RccIodpzXNDPs2a60-123">
          <mxGeometry y="20" width="134.73684210526315" height="20" as="geometry" />
        </mxCell>
        <mxCell id="tK5RccIodpzXNDPs2a60-126" value="GPU 2" style="rounded=0;whiteSpace=wrap;html=1;movable=1;resizable=1;rotatable=1;deletable=1;editable=1;locked=0;connectable=1;" vertex="1" parent="tK5RccIodpzXNDPs2a60-123">
          <mxGeometry y="40" width="134.73684210526315" height="20" as="geometry" />
        </mxCell>
        <mxCell id="tK5RccIodpzXNDPs2a60-127" value="GPU 3" style="rounded=0;whiteSpace=wrap;html=1;movable=1;resizable=1;rotatable=1;deletable=1;editable=1;locked=0;connectable=1;" vertex="1" parent="tK5RccIodpzXNDPs2a60-123">
          <mxGeometry y="60" width="134.73684210526315" height="20" as="geometry" />
        </mxCell>
        <mxCell id="tK5RccIodpzXNDPs2a60-128" value="GPU 4" style="rounded=0;whiteSpace=wrap;html=1;movable=1;resizable=1;rotatable=1;deletable=1;editable=1;locked=0;connectable=1;" vertex="1" parent="tK5RccIodpzXNDPs2a60-123">
          <mxGeometry y="80" width="134.73684210526315" height="20" as="geometry" />
        </mxCell>
        <mxCell id="tK5RccIodpzXNDPs2a60-129" value="GPU 5" style="rounded=0;whiteSpace=wrap;html=1;movable=1;resizable=1;rotatable=1;deletable=1;editable=1;locked=0;connectable=1;" vertex="1" parent="tK5RccIodpzXNDPs2a60-123">
          <mxGeometry y="100" width="134.73684210526315" height="20" as="geometry" />
        </mxCell>
        <mxCell id="tK5RccIodpzXNDPs2a60-130" value="GPU 6" style="rounded=0;whiteSpace=wrap;html=1;movable=1;resizable=1;rotatable=1;deletable=1;editable=1;locked=0;connectable=1;" vertex="1" parent="tK5RccIodpzXNDPs2a60-123">
          <mxGeometry y="120" width="134.73684210526315" height="20" as="geometry" />
        </mxCell>
        <mxCell id="tK5RccIodpzXNDPs2a60-131" value="GPU 7" style="rounded=0;whiteSpace=wrap;html=1;movable=1;resizable=1;rotatable=1;deletable=1;editable=1;locked=0;connectable=1;" vertex="1" parent="tK5RccIodpzXNDPs2a60-123">
          <mxGeometry y="140" width="134.73684210526315" height="20" as="geometry" />
        </mxCell>
        <mxCell id="tK5RccIodpzXNDPs2a60-134" value="" style="shape=flexArrow;endArrow=classic;startArrow=classic;html=1;rounded=0;exitX=0;exitY=0;exitDx=0;exitDy=0;width=10;endSize=4.83;startSize=4.83;endWidth=8;startWidth=8;" edge="1" parent="1" source="tK5RccIodpzXNDPs2a60-128">
          <mxGeometry width="100" height="100" relative="1" as="geometry">
            <mxPoint x="-36.47368421052633" y="732" as="sourcePoint" />
            <mxPoint x="-112.26315789473685" y="700" as="targetPoint" />
          </mxGeometry>
        </mxCell>
        <mxCell id="tK5RccIodpzXNDPs2a60-135" value="ZeRO" style="text;html=1;align=center;verticalAlign=middle;resizable=0;points=[];autosize=1;strokeColor=none;fillColor=none;" vertex="1" parent="1">
          <mxGeometry x="-118.73315789473685" y="668" width="60" height="30" as="geometry" />
        </mxCell>
        <mxCell id="tK5RccIodpzXNDPs2a60-162" value="GPU 0" style="rounded=0;whiteSpace=wrap;html=1;movable=1;resizable=1;rotatable=1;deletable=1;editable=1;locked=0;connectable=1;" vertex="1" parent="1">
          <mxGeometry x="160" y="610" width="134.73684210526315" height="20" as="geometry" />
        </mxCell>
        <mxCell id="tK5RccIodpzXNDPs2a60-163" value="GPU 1" style="rounded=0;whiteSpace=wrap;html=1;movable=1;resizable=1;rotatable=1;deletable=1;editable=1;locked=0;connectable=1;" vertex="1" parent="1">
          <mxGeometry x="160" y="630" width="134.73684210526315" height="20" as="geometry" />
        </mxCell>
        <mxCell id="tK5RccIodpzXNDPs2a60-164" value="GPU 2" style="rounded=0;whiteSpace=wrap;html=1;movable=1;resizable=1;rotatable=1;deletable=1;editable=1;locked=0;connectable=1;" vertex="1" parent="1">
          <mxGeometry x="160" y="650" width="134.73684210526315" height="20" as="geometry" />
        </mxCell>
        <mxCell id="tK5RccIodpzXNDPs2a60-165" value="GPU 3" style="rounded=0;whiteSpace=wrap;html=1;movable=1;resizable=1;rotatable=1;deletable=1;editable=1;locked=0;connectable=1;" vertex="1" parent="1">
          <mxGeometry x="160" y="670" width="134.73684210526315" height="20" as="geometry" />
        </mxCell>
        <mxCell id="tK5RccIodpzXNDPs2a60-166" value="GPU 4" style="rounded=0;whiteSpace=wrap;html=1;movable=1;resizable=1;rotatable=1;deletable=1;editable=1;locked=0;connectable=1;" vertex="1" parent="1">
          <mxGeometry x="160" y="730" width="134.73684210526315" height="20" as="geometry" />
        </mxCell>
        <mxCell id="tK5RccIodpzXNDPs2a60-167" value="GPU 5" style="rounded=0;whiteSpace=wrap;html=1;movable=1;resizable=1;rotatable=1;deletable=1;editable=1;locked=0;connectable=1;" vertex="1" parent="1">
          <mxGeometry x="160" y="750" width="134.73684210526315" height="20" as="geometry" />
        </mxCell>
        <mxCell id="tK5RccIodpzXNDPs2a60-168" value="GPU 6" style="rounded=0;whiteSpace=wrap;html=1;movable=1;resizable=1;rotatable=1;deletable=1;editable=1;locked=0;connectable=1;" vertex="1" parent="1">
          <mxGeometry x="160" y="770" width="134.73684210526315" height="20" as="geometry" />
        </mxCell>
        <mxCell id="tK5RccIodpzXNDPs2a60-169" value="GPU 7" style="rounded=0;whiteSpace=wrap;html=1;movable=1;resizable=1;rotatable=1;deletable=1;editable=1;locked=0;connectable=1;" vertex="1" parent="1">
          <mxGeometry x="160" y="790" width="134.73684210526315" height="20" as="geometry" />
        </mxCell>
        <mxCell id="tK5RccIodpzXNDPs2a60-181" value="Group-0" style="text;html=1;strokeColor=none;fillColor=none;align=center;verticalAlign=middle;whiteSpace=wrap;rounded=0;fontSize=12;" vertex="1" parent="1">
          <mxGeometry x="192.37" y="690" width="70" height="30" as="geometry" />
        </mxCell>
        <mxCell id="tK5RccIodpzXNDPs2a60-182" value="Group-2" style="text;html=1;strokeColor=none;fillColor=none;align=center;verticalAlign=middle;whiteSpace=wrap;rounded=0;fontSize=12;" vertex="1" parent="1">
          <mxGeometry x="192.37" y="810" width="70" height="30" as="geometry" />
        </mxCell>
        <mxCell id="tK5RccIodpzXNDPs2a60-183" value="GPU 0" style="rounded=0;whiteSpace=wrap;html=1;movable=1;resizable=1;rotatable=1;deletable=1;editable=1;locked=0;connectable=1;" vertex="1" parent="1">
          <mxGeometry x="332.63" y="610" width="134.73684210526315" height="20" as="geometry" />
        </mxCell>
        <mxCell id="tK5RccIodpzXNDPs2a60-184" value="GPU 1" style="rounded=0;whiteSpace=wrap;html=1;movable=1;resizable=1;rotatable=1;deletable=1;editable=1;locked=0;connectable=1;" vertex="1" parent="1">
          <mxGeometry x="332.63" y="630" width="134.73684210526315" height="20" as="geometry" />
        </mxCell>
        <mxCell id="tK5RccIodpzXNDPs2a60-185" value="GPU 2" style="rounded=0;whiteSpace=wrap;html=1;movable=1;resizable=1;rotatable=1;deletable=1;editable=1;locked=0;connectable=1;" vertex="1" parent="1">
          <mxGeometry x="332.63" y="650" width="134.73684210526315" height="20" as="geometry" />
        </mxCell>
        <mxCell id="tK5RccIodpzXNDPs2a60-186" value="GPU 3" style="rounded=0;whiteSpace=wrap;html=1;movable=1;resizable=1;rotatable=1;deletable=1;editable=1;locked=0;connectable=1;" vertex="1" parent="1">
          <mxGeometry x="332.63" y="670" width="134.73684210526315" height="20" as="geometry" />
        </mxCell>
        <mxCell id="tK5RccIodpzXNDPs2a60-187" value="GPU 4" style="rounded=0;whiteSpace=wrap;html=1;movable=1;resizable=1;rotatable=1;deletable=1;editable=1;locked=0;connectable=1;" vertex="1" parent="1">
          <mxGeometry x="332.63" y="730" width="134.73684210526315" height="20" as="geometry" />
        </mxCell>
        <mxCell id="tK5RccIodpzXNDPs2a60-188" value="GPU 5" style="rounded=0;whiteSpace=wrap;html=1;movable=1;resizable=1;rotatable=1;deletable=1;editable=1;locked=0;connectable=1;" vertex="1" parent="1">
          <mxGeometry x="332.63" y="750" width="134.73684210526315" height="20" as="geometry" />
        </mxCell>
        <mxCell id="tK5RccIodpzXNDPs2a60-189" value="GPU 6" style="rounded=0;whiteSpace=wrap;html=1;movable=1;resizable=1;rotatable=1;deletable=1;editable=1;locked=0;connectable=1;" vertex="1" parent="1">
          <mxGeometry x="332.63" y="770" width="134.73684210526315" height="20" as="geometry" />
        </mxCell>
        <mxCell id="tK5RccIodpzXNDPs2a60-190" value="GPU 7" style="rounded=0;whiteSpace=wrap;html=1;movable=1;resizable=1;rotatable=1;deletable=1;editable=1;locked=0;connectable=1;" vertex="1" parent="1">
          <mxGeometry x="332.63" y="790" width="134.73684210526315" height="20" as="geometry" />
        </mxCell>
        <mxCell id="tK5RccIodpzXNDPs2a60-191" value="Group-1" style="text;html=1;strokeColor=none;fillColor=none;align=center;verticalAlign=middle;whiteSpace=wrap;rounded=0;fontSize=12;" vertex="1" parent="1">
          <mxGeometry x="365" y="690" width="70" height="30" as="geometry" />
        </mxCell>
        <mxCell id="tK5RccIodpzXNDPs2a60-192" value="Group-3" style="text;html=1;strokeColor=none;fillColor=none;align=center;verticalAlign=middle;whiteSpace=wrap;rounded=0;fontSize=12;" vertex="1" parent="1">
          <mxGeometry x="365" y="810" width="70" height="30" as="geometry" />
        </mxCell>
        <mxCell id="tK5RccIodpzXNDPs2a60-194" value="Training" style="text;html=1;strokeColor=none;fillColor=none;align=center;verticalAlign=middle;whiteSpace=wrap;rounded=0;fontSize=16;" vertex="1" parent="1">
          <mxGeometry x="-117" y="820" width="60" height="30" as="geometry" />
        </mxCell>
        <mxCell id="tK5RccIodpzXNDPs2a60-196" value="Inference" style="text;html=1;strokeColor=none;fillColor=none;align=center;verticalAlign=middle;whiteSpace=wrap;rounded=0;fontSize=16;" vertex="1" parent="1">
          <mxGeometry x="280" y="820" width="60" height="30" as="geometry" />
        </mxCell>
        <mxCell id="tK5RccIodpzXNDPs2a60-197" value="" style="html=1;shadow=0;dashed=0;align=center;verticalAlign=middle;shape=mxgraph.arrows2.arrow;dy=0.5;dx=19;notch=0;" vertex="1" parent="1">
          <mxGeometry x="88" y="710" width="30" height="20" as="geometry" />
        </mxCell>
        <mxCell id="tK5RccIodpzXNDPs2a60-203" value="Manager" style="rounded=0;whiteSpace=wrap;html=1;fillColor=#ffe6cc;strokeColor=#d79b00;direction=south;rotation=90;" vertex="1" parent="1">
          <mxGeometry x="107.75" y="637.75" width="80" height="25" as="geometry" />
        </mxCell>
        <mxCell id="tK5RccIodpzXNDPs2a60-205" value="Manager" style="rounded=0;whiteSpace=wrap;html=1;fillColor=#ffe6cc;strokeColor=#d79b00;direction=south;rotation=90;" vertex="1" parent="1">
          <mxGeometry x="280" y="637.75" width="80" height="25" as="geometry" />
        </mxCell>
        <mxCell id="tK5RccIodpzXNDPs2a60-206" value="Manager" style="rounded=0;whiteSpace=wrap;html=1;fillColor=#ffe6cc;strokeColor=#d79b00;direction=south;rotation=90;" vertex="1" parent="1">
          <mxGeometry x="107.75" y="758" width="80" height="25" as="geometry" />
        </mxCell>
        <mxCell id="tK5RccIodpzXNDPs2a60-207" value="Manager" style="rounded=0;whiteSpace=wrap;html=1;fillColor=#ffe6cc;strokeColor=#d79b00;direction=south;rotation=90;" vertex="1" parent="1">
          <mxGeometry x="280" y="758" width="80" height="25" as="geometry" />
        </mxCell>
      </root>
    </mxGraphModel>
  </diagram>
</mxfile>
